<svg width="175" height="30" viewBox="0 0 175 30" fill="none" xmlns="http://www.w3.org/2000/svg">
<path d="M66.2162 25.2998H87.3829V22.2664H70.0828V15.9331H86.5162V12.8998H70.0828V7.7331H87.3829V4.69977H66.2162V25.2998ZM95.4828 4.69977H91.5828V25.2998H112.216V22.2664H95.4828V4.69977ZM38.9828 9.66644V20.3331C38.9828 23.2998 40.7828 25.2998 45.4495 25.2998H62.0495V22.2664H45.4495C43.6828 22.2664 42.8828 21.5998 42.8828 20.3664V9.6331C42.8828 8.39977 43.7162 7.7331 45.4495 7.7331H62.0495V4.69977H45.4495C40.7828 4.69977 38.9828 6.69977 38.9828 9.66644ZM22.1495 2.26644C21.137 1.25479 19.7642 0.686523 18.3328 0.686523C16.9015 0.686523 15.5287 1.25479 14.5162 2.26644L5.58284 11.1664C4.57119 12.179 4.00293 13.5518 4.00293 14.9831C4.00293 16.4144 4.57119 17.7872 5.58284 18.7998L14.4828 27.6998C15.4954 28.7114 16.8682 29.2797 18.2995 29.2797C19.7308 29.2797 21.1036 28.7114 22.1162 27.6998L31.0162 18.7998C32.0278 17.7872 32.5961 16.4144 32.5961 14.9831C32.5961 13.5518 32.0278 12.179 31.0162 11.1664L22.1495 2.26644ZM28.5162 16.2664L19.6162 25.1998C19.2791 25.5336 18.8239 25.7209 18.3495 25.7209C17.8751 25.7209 17.4199 25.5336 17.0828 25.1998L8.14951 16.2664C7.81568 15.9294 7.6284 15.4742 7.6284 14.9998C7.6284 14.5254 7.81568 14.0702 8.14951 13.7331L13.7162 8.16644L17.0495 4.8331C17.3866 4.49927 17.8418 4.31199 18.3162 4.31199C18.7906 4.31199 19.2458 4.49927 19.5828 4.8331L28.4828 13.7331C28.6544 13.8955 28.7916 14.0907 28.8864 14.307C28.9812 14.5234 29.0316 14.7565 29.0347 14.9927C29.0378 15.2289 28.9935 15.4633 28.9045 15.6821C28.8154 15.9009 28.6834 16.0996 28.5162 16.2664Z" fill="white"/>
<path d="M19.0161 8.06686C18.9258 7.97206 18.8172 7.89659 18.6969 7.84502C18.5766 7.79345 18.447 7.76686 18.3161 7.76686C18.1852 7.76686 18.0556 7.79345 17.9353 7.84502C17.815 7.89659 17.7064 7.97206 17.6161 8.06686L11.3828 14.3002C11.288 14.3905 11.2125 14.4991 11.1609 14.6194C11.1094 14.7397 11.0828 14.8693 11.0828 15.0002C11.0828 15.1311 11.1094 15.2607 11.1609 15.381C11.2125 15.5013 11.288 15.6099 11.3828 15.7002L17.6161 21.9335C18.0161 22.3335 18.6161 22.3335 19.0161 21.9335L25.2494 15.7002C25.6494 15.3002 25.6494 14.7002 25.2494 14.3002L19.0161 8.06686ZM137.549 20.3669C137.549 21.6002 136.716 22.2669 134.983 22.2669H122.183C120.416 22.2669 119.616 21.6002 119.616 20.3669V4.7002H115.716V20.3335C115.716 23.3002 117.516 25.3002 122.183 25.3002H135.783C140.449 25.3002 141.416 23.2669 141.416 20.3335V4.7002H137.516V20.3669H137.549ZM164.216 12.8002H152.116C150.349 12.8002 149.549 12.1335 149.549 10.9002V9.63353C149.549 8.4002 150.383 7.73353 152.116 7.73353H169.549V4.7002H152.116C147.449 4.7002 145.649 6.73353 145.649 9.66686V10.8669C145.649 13.8335 147.449 15.8335 152.116 15.8335H164.216C165.983 15.8335 166.783 16.5002 166.783 17.7335V20.3335C166.783 21.5669 165.949 22.2335 164.216 22.2335H146.316V25.2669H164.216C168.883 25.2669 170.683 23.2335 170.683 20.3002V17.7669C170.683 14.8335 168.883 12.8002 164.216 12.8002Z" fill="white"/>
</svg>
